Run_30002
nRows=4
nColumns=164

# SIMM Motion File Header:
name Run_30002
datacolumns 164
datarows 4
otherdata 1
range 3.97500000 4.00000000
endheader
time	pelvis_tilt	pelvis_list	pelvis_rotation	pelvis_tx	pelvis_ty	pelvis_tz	hip_flexion_r	hip_adduction_r	hip_rotation_r	knee_angle_r	ankle_angle_r	hip_flexion_l	hip_adduction_l	hip_rotation_l	knee_angle_l	ankle_angle_l	lumbar_extension	lumbar_bending	lumbar_rotation	arm_flex_r	arm_add_r	arm_rot_r	elbow_flex_r	pro_sup_r	arm_flex_l	arm_add_l	arm_rot_l	elbow_flex_l	pro_sup_l	subtalar_angle_r	mtp_angle_r	subtalar_angle_l	mtp_angle_l	wrist_flex_r	wrist_dev_r	wrist_flex_l	wrist_dev_l	LASI_tx	LASI_ty	LASI_tz	RASI_tx	RASI_ty	RASI_tz	LPSI_tx	LPSI_ty	LPSI_tz	RPSI_tx	RPSI_ty	RPSI_tz	RTH1_tx	RTH1_ty	RTH1_tz	RTH2_tx	RTH2_ty	RTH2_tz	RTH3_tx	RTH3_ty	RTH3_tz	LTH1_tx	LTH1_ty	LTH1_tz	LTH2_tx	LTH2_ty	LTH2_tz	LTH3_tx	LTH3_ty	LTH3_tz	RTB1_tx	RTB1_ty	RTB1_tz	RTB2_tx	RTB2_ty	RTB2_tz	RTB3_tx	RTB3_ty	RTB3_tz	LTB1_tx	LTB1_ty	LTB1_tz	LTB2_tx	LTB2_ty	LTB2_tz	LTB3_tx	LTB3_ty	LTB3_tz	RCAL_tx	RCAL_ty	RCAL_tz	RTOE_tx	RTOE_ty	RTOE_tz	RMT5_tx	RMT5_ty	RMT5_tz	LCAL_tx	LCAL_ty	LCAL_tz	LTOE_tx	LTOE_ty	LTOE_tz	LMT5_tx	LMT5_ty	LMT5_tz	LACR_tx	LACR_ty	LACR_tz	RACR_tx	RACR_ty	RACR_tz	CLAV_tx	CLAV_ty	CLAV_tz	C7_tx	C7_ty	C7_tz	RUA1_tx	RUA1_ty	RUA1_tz	RUA2_tx	RUA2_ty	RUA2_tz	RUA3_tx	RUA3_ty	RUA3_tz	RLEL_tx	RLEL_ty	RLEL_tz	RMEL_tx	RMEL_ty	RMEL_tz	LUA1_tx	LUA1_ty	LUA1_tz	LUA2_tx	LUA2_ty	LUA2_tz	LUA3_tx	LUA3_ty	LUA3_tz	LLEL_tx	LLEL_ty	LLEL_tz	LMEL_tx	LMEL_ty	LMEL_tz	RFAsuperior_tx	RFAsuperior_ty	RFAsuperior_tz	RFAradius_tx	RFAradius_ty	RFAradius_tz	RFAulna_tx	RFAulna_ty	RFAulna_tz	LFAsuperior_tx	LFAsuperior_ty	LFAsuperior_tz	LFAradius_tx	LFAradius_ty	LFAradius_tz	LFAulna_tx	LFAulna_ty	LFAulna_tz
      3.97500000	     -1.63003684	      4.98310193	      4.70242053	      0.93261304	      1.04325571	     -0.33510499	     39.79624252	     -3.95413964	      1.15183249	    -89.22655954	     10.54731812	      0.31201861	     11.72101140	      3.35042754	    -33.56951192	     23.08695833	    -16.44296873	     -3.27874769	    -19.62254150	    -31.00591826	    -22.96196145	      2.50592750	     99.74677268	    115.89891825	     -7.15127745	    -22.28184391	     -0.74717443	    121.72333301	     97.08205928	      0.00000000	      0.00000000	      0.00000000	      0.00000000	      0.00000000	      0.00000000	      0.00000000	      0.00000000	      0.91827789	      1.05822662	     -0.46381882	      0.93623321	      1.05104209	     -0.20546870	      0.74573934	      1.09382666	     -0.35560157	      0.75029145	      1.08417551	     -0.27385770	      0.92490418	      0.88923431	     -0.15340343	      1.03087148	      0.82668897	     -0.16486403	      1.02306485	      0.70016002	     -0.18384068	      0.83683088	      0.84596352	     -0.50264273	      0.88297526	      0.71784767	     -0.48404143	      0.80544845	      0.61162130	     -0.45326639	      1.06822949	      0.47025731	     -0.27059197	      1.00589511	      0.44195725	     -0.19932997	      0.95022994	      0.35807545	     -0.26676640	      0.79444399	      0.37728491	     -0.36977076	      0.72349191	      0.31029938	     -0.41086603	      0.67842591	      0.21494122	     -0.33409270	      0.74509075	      0.33783818	     -0.27242117	      0.89866680	      0.16236239	     -0.27244387	      0.83024310	      0.19435155	     -0.18499863	      0.50560437	      0.13795548	     -0.31135104	      0.72971498	      0.06909684	     -0.29390206	      0.65290581	      0.05611273	     -0.38156918	      0.98017113	      1.52146193	     -0.49322267	      0.92127759	      1.53246598	     -0.15338764	      0.99514698	      1.47031578	     -0.27849495	      0.87598504	      1.56289901	     -0.33437195	      0.85516734	      1.45232596	     -0.07685960	      0.81695867	      1.36901559	     -0.08316731	      0.74499573	      1.39997082	     -0.06706516	      0.65671939	      1.29261229	     -0.03353418	      0.63979130	      1.29327937	     -0.11557594	      0.97356983	      1.42630402	     -0.56603595	      0.98416006	      1.35426397	     -0.55600523	      0.89128068	      1.33681000	     -0.58007539	      0.90927247	      1.17715134	     -0.63347151	      0.85203244	      1.16186088	     -0.56700912	      0.74016173	      1.22299854	     -0.03057238	      0.86743163	      1.12456187	     -0.11314352	      0.83439253	      1.09166984	     -0.05719705	      0.99870555	      1.18960341	     -0.59045883	      1.10695107	      1.23188609	     -0.45266294	      1.12790060	      1.16683278	     -0.47590212
      3.98333300	     -1.91095042	      3.93176176	      4.66263998	      0.93410697	      1.04832103	     -0.33547837	     40.47118884	     -3.04517083	      0.40957285	    -85.35166077	     10.42152737	     -1.77983634	     10.44924689	      3.85931724	    -31.54211112	     20.89583385	    -15.69095788	     -2.02665179	    -20.00418415	    -32.63596763	    -23.24257803	      1.89996181	    100.67326055	    116.34366052	     -7.60764397	    -21.92147477	     -0.68961355	    122.83449875	     97.11416810	      0.00000000	      0.00000000	      0.00000000	      0.00000000	      0.00000000	      0.00000000	      0.00000000	      0.00000000	      0.91997507	      1.06131424	     -0.46500124	      0.93742079	      1.05748282	     -0.20629289	      0.74749853	      1.09914980	     -0.35693425	      0.75147717	      1.09029052	     -0.27455085	      0.92690071	      0.89725313	     -0.15274004	      1.03276163	      0.83499919	     -0.16455427	      1.02609281	      0.70804835	     -0.18367173	      0.83213375	      0.85003630	     -0.50174190	      0.87390675	      0.72087726	     -0.48220646	      0.79143434	      0.61726729	     -0.45227433	      1.08053676	      0.47363827	     -0.27096038	      1.02027889	      0.44034128	     -0.20024153	      0.96491593	      0.35618600	     -0.26765610	      0.77385939	      0.38247097	     -0.36976213	      0.70243682	      0.31639359	     -0.41104942	      0.65713989	      0.22075977	     -0.33471787	      0.76862026	      0.31740757	     -0.27543254	      0.93453149	      0.15341121	     -0.27602404	      0.86335241	      0.17949577	     -0.18873770	      0.48485364	      0.14673707	     -0.31238952	      0.70583147	      0.06867178	     -0.29426807	      0.62892307	      0.05782292	     -0.38163284	      0.98210153	      1.52838177	     -0.49178797	      0.91871907	      1.53854374	     -0.15325241	      0.99446853	      1.47696109	     -0.27690403	      0.87601143	      1.56832628	     -0.33460834	      0.85064378	      1.46096120	     -0.07753852	      0.81157816	      1.37791610	     -0.08430017	      0.73985810	      1.40993554	     -0.06945622	      0.64850582	      1.30424797	     -0.03845008	      0.63386376	      1.30559147	     -0.12091141	      0.97638101	      1.43346409	     -0.56490662	      0.98702003	      1.36137720	     -0.55451394	      0.89449964	      1.34423209	     -0.58076231	      0.91240378	      1.18412019	     -0.63260283	      0.85392842	      1.16931003	     -0.56676912	      0.73102481	      1.23397359	     -0.03383280	      0.85914528	      1.13458800	     -0.11442837	      0.82527763	      1.10219533	     -0.05860903	      1.00119150	      1.19807784	     -0.58873801	      1.10627616	      1.24348770	     -0.44960842	      1.12854702	      1.17831205	     -0.47172720
      3.99166700	     -2.15799136	      2.86817806	      4.47083107	      0.93586140	      1.05351452	     -0.33552793	     40.88992417	     -2.00299685	     -0.24039860	    -81.09500440	     10.12584024	     -3.82138248	      9.11482955	      3.99352401	    -29.54625154	     18.38868104	    -14.97655456	     -0.81058164	    -20.16412404	    -34.26851849	    -23.41226413	      1.16095125	    101.52875827	    116.53413740	     -8.08315740	    -21.56384337	     -0.46881030	    123.80751446	     97.22354027	      0.00000000	      0.00000000	      0.00000000	      0.00000000	      0.00000000	      0.00000000	      0.00000000	      0.00000000	      0.92215048	      1.06467696	     -0.46550480	      0.93868707	      1.06426769	     -0.20693251	      0.74967093	      1.10455443	     -0.35840757	      0.75281455	      1.09669527	     -0.27555164	      0.92840321	      0.90527822	     -0.15215242	      1.03400841	      0.84257524	     -0.16420773	      1.02790086	      0.71522787	     -0.18403867	      0.82808706	      0.85438267	     -0.50089570	      0.86527009	      0.72441239	     -0.48044153	      0.77814813	      0.62362614	     -0.45167927	      1.09192955	      0.47648881	     -0.27142575	      1.03405619	      0.43832003	     -0.20121954	      0.98104576	      0.35277779	     -0.26882002	      0.75411441	      0.38845281	     -0.37028787	      0.68212214	      0.32330771	     -0.41166227	      0.63675314	      0.22725288	     -0.33562548	      0.79332730	      0.29693856	     -0.27850299	      0.97076789	      0.14522880	     -0.27997028	      0.89733906	      0.16513445	     -0.19278334	      0.46524984	      0.15649193	     -0.31337017	      0.68224432	      0.06823575	     -0.29471069	      0.60530769	      0.06010181	     -0.38197641	      0.98392326	      1.53528595	     -0.49030240	      0.91673601	      1.54476065	     -0.15306376	      0.99377399	      1.48353369	     -0.27554084	      0.87607541	      1.57389568	     -0.33471224	      0.84684948	      1.46948303	     -0.07843978	      0.80666290	      1.38682537	     -0.08587380	      0.73521659	      1.41999447	     -0.07247323	      0.64115276	      1.31575183	     -0.04362046	      0.62812615	      1.31762477	     -0.12646151	      0.97929799	      1.44052350	     -0.56366202	      0.98956114	      1.36839471	     -0.55313824	      0.89734303	      1.35192102	     -0.58151688	      0.91500592	      1.19122487	     -0.63200635	      0.85535414	      1.17678287	     -0.56674374	      0.72268742	      1.24472005	     -0.03731473	      0.85175899	      1.14438689	     -0.11560253	      0.81685224	      1.11240012	     -0.06016138	      1.00320344	      1.20642668	     -0.58710166	      1.10514001	      1.25437452	     -0.44667085	      1.12862476	      1.18904610	     -0.46769979
      4.00000000	     -2.41693090	      1.83869502	      4.13516232	      0.93787597	      1.05866423	     -0.33528836	     41.09656529	     -0.88261530	     -0.76351353	    -76.46259660	      9.69276470	     -5.77956022	      7.79778212	      3.75088626	    -27.57804136	     15.54921400	    -14.26236825	      0.32445140	    -20.11487395	    -35.88999829	    -23.45348932	      0.28477913	    102.30291356	    116.51773463	     -8.59397855	    -21.19391865	     -0.16169439	    124.64617667	     97.58557761	      0.00000000	      0.00000000	      0.00000000	      0.00000000	      0.00000000	      0.00000000	      0.00000000	      0.00000000	      0.92477582	      1.06825482	     -0.46540305	      0.94000999	      1.07120603	     -0.20731322	      0.75225121	      1.11001498	     -0.36005785	      0.75437960	      1.10332092	     -0.27678108	      0.92933922	      0.91305918	     -0.15164999	      1.03459958	      0.84924086	     -0.16378798	      1.02850179	      0.72153921	     -0.18499231	      0.82469314	      0.85892376	     -0.50019776	      0.85694525	      0.72835545	     -0.47892404	      0.76555876	      0.63056102	     -0.45148016	      1.10238796	      0.47873281	     -0.27181861	      1.04713690	      0.43588320	     -0.20216462	      0.99920820	      0.34771060	     -0.27021402	      0.73529215	      0.39514421	     -0.37134549	      0.66257312	      0.33098987	     -0.41273677	      0.61739688	      0.23428361	     -0.33688265	      0.81917402	      0.27654007	     -0.28152495	      1.00722199	      0.13810115	     -0.28419972	      0.93216413	      0.15147571	     -0.19702738	      0.44691945	      0.16704220	     -0.31428983	      0.65895884	      0.06784456	     -0.29521951	      0.58202586	      0.06271386	     -0.38239507	      0.98565878	      1.54210491	     -0.48882809	      0.91523313	      1.55094785	     -0.15291408	      0.99320247	      1.48994890	     -0.27435811	      0.87619063	      1.57949486	     -0.33471442	      0.84374984	      1.47769609	     -0.07946305	      0.80227393	      1.39559787	     -0.08771321	      0.73111628	      1.43002245	     -0.07606858	      0.63464595	      1.32698346	     -0.04896636	      0.62336547	      1.32911594	     -0.13220268	      0.98219027	      1.44750397	     -0.56236670	      0.99179471	      1.37529458	     -0.55190256	      0.89985745	      1.35965795	     -0.58208265	      0.91704750	      1.19838745	     -0.63157816	      0.85640031	      1.18426478	     -0.56684929	      0.71519004	      1.25519839	     -0.04096885	      0.84528455	      1.15386442	     -0.11661051	      0.80914177	      1.12217341	     -0.06181943	      1.00466228	      1.21450194	     -0.58570079	      1.10362771	      1.26443407	     -0.44387635	      1.12826689	      1.19906264	     -0.46406379
